<svg width="15" height="15" viewBox="0 0 15 15" fill="none" xmlns="http://www.w3.org/2000/svg">
<path d="M0.296279 6.62119L6.81438 0.264848C6.91314 0.168539 7.02013 0.10016 7.13535 0.0597109C7.25057 0.0199035 7.37402 0 7.5057 0C7.63738 0 7.76083 0.0199035 7.87604 0.0597109C7.99126 0.10016 8.09825 0.168539 8.19701 0.264848L14.7151 6.62119C14.8962 6.79775 14.991 7.0183 14.9995 7.28282C15.0074 7.54799 14.9126 7.77689 14.7151 7.9695C14.5341 8.16212 14.3079 8.2626 14.0366 8.27095C13.7647 8.27865 13.53 8.1862 13.3325 7.99358L8.49329 3.27448V14.0369C8.49329 14.3098 8.39881 14.5387 8.20985 14.7236C8.02023 14.9079 7.78552 15 7.5057 15C7.22588 15 6.99149 14.9079 6.80253 14.7236C6.61292 14.5387 6.51811 14.3098 6.51811 14.0369V3.27448L1.67891 7.99358C1.49785 8.17014 1.26741 8.2626 0.987592 8.27095C0.707774 8.27865 0.477338 8.1862 0.296279 7.99358C0.0987606 7.81701 0 7.5923 0 7.31942C0 7.04655 0.0987606 6.8138 0.296279 6.62119Z" fill="#23262B"/>
</svg>
