<svg width="101" height="24" viewBox="0 0 101 24" fill="#23262B" xmlns="http://www.w3.org/2000/svg">
<path d="M5.13153 13.0929L5.95168 12.483L6.13808 12.361L12.1773 12.6049L12.3637 11.1411L12.5129 9.59602L12.6993 8.17288L12.9975 6.70908L13.4821 5.28594L14.1159 4.06611L14.8987 3.09024L15.7935 2.39901L16.9864 1.58578L17.8811 1.13851L19.4096 0.609917L21.4972 0.243967L22.9511 0.0813222L24.5541 0H25.9335L25.8589 1.09785L25.7471 2.43967L25.6352 3.57818L25.4116 4.87933L25.1133 6.18049L24.7778 7.27834L24.405 8.13222L23.9949 9.02677L23.2121 10.1246L22.4665 10.8565L21.3108 11.7917L19.9688 12.5236L16.2035 11.9544L17.8065 11.5884L18.9249 11.1818L20.1179 10.6532L20.9753 10.084L22.0191 9.14875L22.6902 8.13222L23.2493 6.95305L23.6594 5.61123L23.9949 4.26942L24.1813 3.04958L24.2932 1.66711L23.2866 1.74843L22.2801 1.82975L20.938 2.03306L19.335 2.39901L18.1421 2.88694L17.1355 3.41553L16.2035 4.06611L15.3834 5.04198L14.7496 6.22115L14.4141 7.23768L14.1159 8.9861L13.8922 10.7752L13.7431 12.6049L13.5194 14.3534L13.1093 16.1018L12.401 17.6876L11.3945 19.0294L10.4252 19.9239L9.0086 20.6558L7.81565 20.9811L6.39903 21.1438L3.30484 21.1031V18.3788L3.41668 17.3216L3.5658 16.2644L3.86403 15.2073L4.42322 14.0281L5.13153 13.0929Z" fill="#23262B"/>
<path d="M15.4189 13.7054L14.4849 13.8274L14.597 13.055V12.0388L16.0166 11.8762L17.0627 11.7949H18.3329L19.5658 12.1608L20.4624 12.7299L21.3217 13.6241L21.9942 14.7623L22.3304 15.9005L22.5546 17.12L22.6293 18.2988V19.4776V21.1442L20.313 21.0629L18.8186 20.9816L17.3616 20.6564L16.2408 20.2499L14.9706 19.315L14.186 18.5427L13.4762 17.5264L13.775 16.8354L14.0366 16.0631L14.2607 15.4127L14.4849 16.0631L14.8958 16.9167L15.4936 17.811L16.4276 18.5427L17.7352 19.1524L19.0801 19.4776L20.3877 19.5995H21.1723V18.5427L20.9855 17.0387L20.5745 15.5753L19.9768 14.3558L19.0428 13.7054L17.9967 13.4615H16.6891L15.4189 13.7054Z" fill="#23262B"/>
<path d="M11.5287 3.74863L12.4585 5.48186L13.6075 8.18249L13.1539 13.001L11.1196 13.6643L8.59076 13.1807L5.95031 12.3342L4.79744 11.8102L3.34705 10.7219L2.4545 9.67387L1.59915 8.30341L0.706599 5.6834L0.185947 3.26493L0 1.08831L0.0743788 0L1.71071 0.0806156L4.46273 0.241847L7.0288 0.765848L9.78082 2.01539L11.5287 3.74863Z" fill="#23262B"/>
<path d="M34.9531 19H33.5611L38.8523 4.45455H40.2727L45.5639 19H44.1719L39.6122 6.1804H39.5128L34.9531 19ZM35.9545 13.4247H43.1705V14.6179H35.9545V13.4247ZM49.0582 12.1818V19H47.794V8.09091H49.0227V9.80256H49.1364C49.392 9.24384 49.7898 8.7964 50.3295 8.46023C50.8741 8.11932 51.5464 7.94886 52.3466 7.94886C53.0805 7.94886 53.7244 8.10275 54.2784 8.41051C54.8371 8.71354 55.2704 9.16098 55.5781 9.75284C55.8906 10.3447 56.0469 11.0715 56.0469 11.9332V19H54.7827V12.0114C54.7827 11.1165 54.5317 10.4086 54.0298 9.88778C53.5327 9.36695 52.8651 9.10653 52.027 9.10653C51.4541 9.10653 50.9451 9.22964 50.5 9.47585C50.0549 9.72206 49.7022 10.0772 49.4418 10.5412C49.1861 11.0005 49.0582 11.5473 49.0582 12.1818ZM60.6403 12.1818V19H59.3761V8.09091H60.6048V9.80256H60.7184C60.9741 9.24384 61.3718 8.7964 61.9116 8.46023C62.4561 8.11932 63.1284 7.94886 63.9286 7.94886C64.6625 7.94886 65.3065 8.10275 65.8604 8.41051C66.4192 8.71354 66.8524 9.16098 67.1602 9.75284C67.4727 10.3447 67.6289 11.0715 67.6289 11.9332V19H66.3647V12.0114C66.3647 11.1165 66.1138 10.4086 65.6119 9.88778C65.1147 9.36695 64.4471 9.10653 63.609 9.10653C63.0361 9.10653 62.5271 9.22964 62.082 9.47585C61.637 9.72206 61.2842 10.0772 61.0238 10.5412C60.7681 11.0005 60.6403 11.5473 60.6403 12.1818ZM71.4482 23.0909C71.1972 23.0909 70.9628 23.0672 70.745 23.0199C70.5272 22.9725 70.3544 22.9205 70.2266 22.8636L70.5675 21.7486C70.9983 21.8812 71.3819 21.9285 71.718 21.8906C72.0542 21.8575 72.3525 21.706 72.6129 21.4361C72.8733 21.1709 73.1054 20.7637 73.3089 20.2145L73.7067 19.1065L69.6939 8.09091H71.0646L74.3033 17.331H74.4027L77.6413 8.09091H79.0121L74.3956 20.7259C74.2015 21.2514 73.9624 21.6894 73.6783 22.0398C73.3942 22.3949 73.0651 22.6577 72.6911 22.8281C72.3217 23.0033 71.9074 23.0909 71.4482 23.0909Z" fill="#23262B"/>
<defs>
<linearGradient id="paint0_linear_24_24" x1="3.30484" y1="0" x2="24.4" y2="22.5766" gradientUnits="userSpaceOnUse">
<stop/>
</linearGradient>
<linearGradient id="paint1_linear_24_24" x1="13.4762" y1="11.7949" x2="22.8234" y2="20.946" gradientUnits="userSpaceOnUse">
<stop/>
</linearGradient>
<linearGradient id="paint2_linear_24_24" x1="0" y1="0" x2="13.6062" y2="12.4055" gradientUnits="userSpaceOnUse">
<stop/>
</linearGradient>
</defs>
</svg>
